<svg xmlns="http://www.w3.org/2000/svg" width="21" height="18" viewBox="0 0 21 18"><g><g><path fill="#636363" d="M21 2.88v8.285c0 .99-.783 1.795-1.746 1.795H5.316c-.57 0-1.058.425-1.11.969-.031.307.064.603.265.833.2.227.484.358.779.358h.822c.29-.838 1.065-1.44 1.978-1.44.912 0 1.688.602 1.977 1.44h4.095c.29-.838 1.065-1.44 1.978-1.44.912 0 1.688.602 1.977 1.44H19.6c.193 0 .35.16.35.36 0 .199-.157.36-.35.36h-1.4c0 1.19-.942 2.16-2.1 2.16-1.158 0-2.1-.97-2.1-2.16h-3.85c0 1.19-.942 2.16-2.1 2.16-1.158 0-2.1-.97-2.1-2.16h-.7c-.492 0-.965-.217-1.297-.595a1.835 1.835 0 0 1-.444-1.389c.084-.86.803-1.543 1.666-1.61L3.365 2.88h.013L3.203 1.8H2.75c-.156.619-.7 1.08-1.35 1.08-.772 0-1.4-.646-1.4-1.44C0 .646.628 0 1.4 0c.65 0 1.194.46 1.35 1.08h1.046l.292 1.8zM2.1 1.44a.711.711 0 0 0-.7-.72c-.386 0-.7.323-.7.72 0 .397.314.72.7.72.386 0 .7-.323.7-.72zm12.6 14.4c0 .794.628 1.44 1.4 1.44.772 0 1.4-.646 1.4-1.44 0-.794-.628-1.44-1.4-1.44-.772 0-1.4.646-1.4 1.44zm-8.05 0c0 .794.628 1.44 1.4 1.44.772 0 1.4-.646 1.4-1.44 0-.794-.628-1.44-1.4-1.44-.772 0-1.4.646-1.4 1.44zM20.3 3.6H4.218l1.67 8.64h13.367c.576 0 1.045-.483 1.045-1.075z"/></g></g></svg>